<?xml version="1.0" encoding="UTF-8" standalone="no"?>
<svg
   width="369.13199mm"
   height="97.203369mm"
   viewBox="0 0 369.13199 97.203369"
   version="1.1"
   id="svg8"
   inkscape:version="1.2.2 (b0a8486541, 2022-12-01)"
   sodipodi:docname="depict-logo-cutout-white-volowan.svg"
   xml:space="preserve"
   xmlns:inkscape="http://www.inkscape.org/namespaces/inkscape"
   xmlns:sodipodi="http://sodipodi.sourceforge.net/DTD/sodipodi-0.dtd"
   xmlns="http://www.w3.org/2000/svg"
   xmlns:svg="http://www.w3.org/2000/svg"
   xmlns:rdf="http://www.w3.org/1999/02/22-rdf-syntax-ns#"
   xmlns:cc="http://creativecommons.org/ns#"
   xmlns:dc="http://purl.org/dc/elements/1.1/"><defs
     id="defs2" /><sodipodi:namedview
     id="base"
     pagecolor="#ffffff"
     bordercolor="#666666"
     borderopacity="1.0"
     inkscape:pageopacity="0.0"
     inkscape:pageshadow="2"
     inkscape:zoom="1.3620609"
     inkscape:cx="45.152168"
     inkscape:cy="234.20393"
     inkscape:document-units="mm"
     inkscape:current-layer="layer1"
     inkscape:document-rotation="0"
     showgrid="false"
     inkscape:window-width="2560"
     inkscape:window-height="1416"
     inkscape:window-x="744"
     inkscape:window-y="0"
     inkscape:window-maximized="1"
     fit-margin-top="0"
     fit-margin-left="0"
     fit-margin-right="0"
     fit-margin-bottom="0"
     inkscape:showpageshadow="0"
     inkscape:pagecheckerboard="1"
     inkscape:deskcolor="#d1d1d1" /><metadata
     id="metadata5"><rdf:RDF><cc:Work
         rdf:about=""><dc:format>image/svg+xml</dc:format><dc:type
           rdf:resource="http://purl.org/dc/dcmitype/StillImage" /></cc:Work></rdf:RDF></metadata><g
     inkscape:label="Layer 1"
     inkscape:groupmode="layer"
     id="layer1"
     transform="translate(-10.645376,-7.8380082)"><path
       id="path995"
       style="font-style:normal;font-variant:normal;font-weight:normal;font-stretch:normal;font-size:55.50119999999999720px;line-height:1.25;font-family:'Arial Black';-inkscape-font-specification:'Arial Black, ';fill:#ffffff;fill-opacity:1;stroke:none;stroke-width:1.38753"
       d="M 15.915855 7.8380082 A 5.273177 5.273177 0 0 0 12.790981 17.357324 L 130.49439 104.0156 A 5.273177 5.273177 0 0 0 138.89233 99.769348 L 138.89233 13.111071 A 5.273177 5.273177 0 0 0 133.62133 7.8380082 L 15.915855 7.8380082 z M 175.31388 7.8380082 C 169.14405 7.8380082 164.36882 9.5461917 160.98762 12.962243 C 157.62384 16.360867 155.94193 21.232244 155.94193 27.576338 C 155.94193 32.334413 156.90055 36.238238 158.81773 39.288285 C 160.73491 42.338332 163.00935 44.47356 165.64108 45.693579 C 168.29027 46.896166 171.6977 47.497603 175.8632 47.497603 C 179.29666 47.497603 182.12001 47.000698 184.33348 46.007255 C 186.56438 45.013811 188.42909 43.540949 189.92797 41.58892 C 191.42686 39.63689 192.52519 37.205923 193.22235 34.295308 L 182.84313 31.158032 C 182.32027 33.580638 181.47511 35.428023 180.30737 36.700329 C 179.15707 37.972635 177.44886 38.60874 175.18314 38.60874 C 172.84767 38.60874 171.03548 37.824506 169.74574 36.255912 C 168.45601 34.669886 167.81098 31.750427 167.81098 27.49779 C 167.81098 24.064312 168.35096 21.545631 169.43155 19.942179 C 170.86072 17.781002 172.91766 16.700516 175.60172 16.700516 C 176.78684 16.700516 177.85843 16.944766 178.81702 17.432771 C 179.77561 17.92078 180.5861 18.617817 181.2484 19.524117 C 181.64927 20.064409 182.03271 20.918502 182.39872 22.086234 L 192.85648 19.759244 C 191.51445 15.715754 189.4575 12.718024 186.68631 10.765995 C 183.93255 8.8139645 180.14165 7.8380082 175.31388 7.8380082 z M 199.10467 8.4917151 L 199.10467 46.817541 L 216.69895 46.817541 C 218.80784 46.817541 221.16056 46.46928 223.75743 45.772127 C 225.65718 45.266689 227.43521 44.255547 229.09096 42.739237 C 230.7467 41.205501 232.03624 39.314519 232.95997 37.066198 C 233.90113 34.800452 234.37177 31.619922 234.37177 27.524145 C 234.37177 24.909821 234.05818 22.43474 233.43074 20.099275 C 232.8033 17.763813 231.79217 15.715776 230.39785 13.955464 C 229.00357 12.195153 227.23496 10.844672 225.0912 9.9035152 C 222.96488 8.9623579 220.1673 8.4917151 216.69895 8.4917151 L 199.10467 8.4917151 z M 240.61997 8.4917151 L 240.61997 46.817541 L 252.46317 46.817541 L 252.46317 37.458422 L 258.58063 31.053129 L 266.65921 46.817541 L 281.24695 46.817541 L 266.65921 22.948714 L 280.61959 8.4917151 L 264.88102 8.4917151 L 252.46317 22.975069 L 252.46317 8.4917151 L 240.61997 8.4917151 z M 120.38338 14.032462 A 1.9229672 1.9229672 0 0 1 121.35748 14.290844 L 131.21476 19.980419 A 1.9229672 1.9229672 0 0 1 132.17594 21.646468 L 132.17594 33.027168 A 1.9229672 1.9229672 0 0 1 131.21476 34.693217 L 121.35748 40.384859 A 1.9229672 1.9229672 0 0 1 119.43563 40.384859 L 109.57836 34.693217 A 1.9229672 1.9229672 0 0 1 108.61717 33.027168 L 108.61717 21.646468 A 1.9229672 1.9229672 0 0 1 109.57836 19.980419 L 119.43563 14.290844 A 1.9229672 1.9229672 0 0 1 120.35341 14.032979 A 1.9229672 1.9229672 0 0 1 120.38338 14.032462 z M 210.94736 17.171289 L 213.9017 17.171289 C 216.96919 17.171289 219.16534 17.920852 220.48993 19.41973 C 221.81453 20.918612 222.47689 23.698354 222.47689 27.759273 C 222.47689 30.826748 222.18013 33.049173 221.58754 34.426049 C 220.99496 35.7855 220.17606 36.743604 219.13032 37.301326 C 218.08462 37.841622 216.32441 38.112129 213.84951 38.112129 L 210.94736 38.112129 L 210.94736 17.171289 z M 70.830333 20.541109 A 0.78361203 0.78361203 0 0 1 70.840668 20.541109 A 0.78361203 0.78361203 0 0 1 70.846353 20.541109 A 0.78361203 0.78361203 0 0 1 70.861855 20.541626 A 0.78361203 0.78361203 0 0 1 70.889244 20.542659 A 0.78361203 0.78361203 0 0 1 70.944538 20.547827 A 0.78361203 0.78361203 0 0 1 70.971926 20.551444 A 0.78361203 0.78361203 0 0 1 70.999315 20.556612 A 0.78361203 0.78361203 0 0 1 71.026187 20.562813 A 0.78361203 0.78361203 0 0 1 71.053058 20.569531 A 0.78361203 0.78361203 0 0 1 71.070628 20.574698 L 84.742145 24.237007 L 98.410562 20.575215 A 0.78361203 0.78361203 0 0 1 98.444151 20.56643 A 0.78361203 0.78361203 0 0 1 98.449319 20.565397 A 0.78361203 0.78361203 0 0 1 98.613133 20.543176 A 0.78361203 0.78361203 0 0 1 99.025511 20.648596 A 0.78361203 0.78361203 0 0 1 99.312315 21.718815 L 92.121023 34.173868 A 0.78361203 0.78361203 0 0 1 92.120506 34.174902 A 0.78361203 0.78361203 0 0 1 91.209967 34.529919 L 77.551886 30.870194 L 63.893289 34.529919 A 0.78361203 0.78361203 0 0 1 63.268521 34.460156 A 0.78361203 0.78361203 0 0 1 63.071117 34.298409 A 0.78361203 0.78361203 0 0 1 63.036493 34.255517 A 0.78361203 0.78361203 0 0 1 63.025641 34.241048 A 0.78361203 0.78361203 0 0 1 63.016856 34.228645 A 0.78361203 0.78361203 0 0 1 63.004454 34.210042 A 0.78361203 0.78361203 0 0 0 63.003937 34.209525 A 0.78361203 0.78361203 0 0 1 62.992052 34.190922 A 0.78361203 0.78361203 0 0 1 62.988951 34.185754 A 0.78361203 0.78361203 0 0 1 62.975515 34.163016 A 0.78361203 0.78361203 0 0 1 62.962596 34.138728 A 0.78361203 0.78361203 0 0 0 62.962596 34.138212 A 0.78361203 0.78361203 0 0 1 62.951227 34.115991 A 0.78361203 0.78361203 0 0 1 62.950194 34.11289 A 0.78361203 0.78361203 0 0 1 62.942442 34.095837 A 0.78361203 0.78361203 0 0 1 62.938308 34.086535 A 0.78361203 0.78361203 0 0 1 62.929523 34.063281 A 0.78361203 0.78361203 0 0 1 62.920221 34.037443 A 0.78361203 0.78361203 0 0 0 62.920221 34.036926 A 0.78361203 0.78361203 0 0 1 62.916087 34.024007 A 0.78361203 0.78361203 0 0 1 62.910403 34.00592 A 0.78361203 0.78361203 0 0 1 62.909369 34.00437 A 0.78361203 0.78361203 0 0 1 62.904202 33.984733 A 0.78361203 0.78361203 0 0 1 62.890766 33.924788 A 0.78361203 0.78361203 0 0 1 62.887148 33.903601 A 0.78361203 0.78361203 0 0 1 62.886115 33.895849 A 0.78361203 0.78361203 0 0 1 62.884048 33.877762 A 0.78361203 0.78361203 0 0 1 62.883014 33.866394 A 0.78361203 0.78361203 0 0 1 62.881981 33.856058 A 0.78361203 0.78361203 0 0 1 62.879914 33.838488 A 0.78361203 0.78361203 0 0 1 62.87888 33.824536 A 0.78361203 0.78361203 0 0 1 62.878363 33.812133 A 0.78361203 0.78361203 0 0 1 62.878363 33.794563 A 0.78361203 0.78361203 0 0 1 62.877847 33.783711 A 0.78361203 0.78361203 0 0 1 62.878363 33.772859 A 0.78361203 0.78361203 0 0 1 62.878363 33.755289 A 0.78361203 0.78361203 0 0 1 62.879397 33.732035 A 0.78361203 0.78361203 0 0 1 62.881464 33.709297 A 0.78361203 0.78361203 0 0 1 62.882498 33.699479 A 0.78361203 0.78361203 0 0 1 62.883014 33.692244 A 0.78361203 0.78361203 0 0 1 62.886115 33.67209 A 0.78361203 0.78361203 0 0 1 62.890249 33.649869 A 0.78361203 0.78361203 0 0 1 62.895417 33.622481 A 0.78361203 0.78361203 0 0 1 62.901101 33.595609 A 0.78361203 0.78361203 0 0 1 62.908336 33.568737 A 0.78361203 0.78361203 0 0 1 62.916087 33.542382 A 0.78361203 0.78361203 0 0 1 62.925389 33.516027 A 0.78361203 0.78361203 0 0 1 62.93314 33.49484 A 0.78361203 0.78361203 0 0 1 62.936241 33.488122 A 0.78361203 0.78361203 0 0 1 62.942442 33.474169 A 0.78361203 0.78361203 0 0 1 62.948127 33.460217 A 0.78361203 0.78361203 0 0 1 62.954328 33.447815 A 0.78361203 0.78361203 0 0 1 62.957945 33.43903 A 0.78361203 0.78361203 0 0 1 62.967247 33.420943 A 0.78361203 0.78361203 0 0 1 62.971381 33.413191 A 0.78361203 0.78361203 0 0 1 62.983267 33.391487 A 0.78361203 0.78361203 0 0 1 62.989985 33.379602 L 70.164224 20.956587 A 0.78361203 0.78361203 0 0 1 70.165257 20.953487 A 0.78361203 0.78361203 0 0 1 70.187995 20.914213 A 0.78361203 0.78361203 0 0 1 70.218484 20.868737 A 0.78361203 0.78361203 0 0 1 70.25259 20.825329 A 0.78361203 0.78361203 0 0 1 70.270677 20.804142 A 0.78361203 0.78361203 0 0 1 70.289797 20.783988 A 0.78361203 0.78361203 0 0 1 70.309434 20.764351 A 0.78361203 0.78361203 0 0 1 70.329588 20.745231 A 0.78361203 0.78361203 0 0 1 70.348709 20.729211 A 0.78361203 0.78361203 0 0 1 70.352326 20.72611 A 0.78361203 0.78361203 0 0 1 70.37248 20.710091 A 0.78361203 0.78361203 0 0 1 70.394701 20.693554 A 0.78361203 0.78361203 0 0 1 70.440693 20.662548 A 0.78361203 0.78361203 0 0 1 70.449478 20.657898 A 0.78361203 0.78361203 0 0 1 70.458779 20.65273 A 0.78361203 0.78361203 0 0 1 70.469631 20.646529 A 0.78361203 0.78361203 0 0 1 70.489268 20.635677 A 0.78361203 0.78361203 0 0 1 70.514073 20.623274 A 0.78361203 0.78361203 0 0 1 70.536294 20.612939 A 0.78361203 0.78361203 0 0 1 70.544562 20.609838 A 0.78361203 0.78361203 0 0 1 70.555931 20.605188 A 0.78361203 0.78361203 0 0 1 70.567817 20.60002 A 0.78361203 0.78361203 0 0 1 70.591071 20.590718 A 0.78361203 0.78361203 0 0 1 70.612775 20.584 A 0.78361203 0.78361203 0 0 1 70.627244 20.578316 A 0.78361203 0.78361203 0 0 1 70.653599 20.570564 A 0.78361203 0.78361203 0 0 1 70.680471 20.56333 A 0.78361203 0.78361203 0 0 1 70.706826 20.557645 A 0.78361203 0.78361203 0 0 1 70.70786 20.557645 A 0.78361203 0.78361203 0 0 1 70.734731 20.552478 A 0.78361203 0.78361203 0 0 1 70.76212 20.548343 A 0.78361203 0.78361203 0 0 1 70.789508 20.545243 A 0.78361203 0.78361203 0 0 0 70.790025 20.545243 A 0.78361203 0.78361203 0 0 1 70.834984 20.542659 L 70.830333 20.541109 z M 80.826105 39.234025 A 3.306402 3.191038 0 0 1 84.132363 42.425044 A 3.306402 3.191038 0 0 1 83.634719 44.001692 L 85.984447 42.017834 L 85.984447 42.014733 L 85.985997 42.016284 L 85.988064 42.014733 L 85.988064 42.017834 L 88.336758 44.000659 A 3.306402 3.191038 0 0 1 87.839631 42.425044 A 3.306402 3.191038 0 0 1 91.146405 39.234025 A 3.306402 3.191038 0 0 1 94.452664 42.425044 A 3.306402 3.191038 0 0 1 94.031501 43.891105 L 96.243769 41.98011 L 97.85504 41.990446 L 86.009251 62.495654 L 86.009251 62.494104 L 85.988064 62.531827 L 85.988064 62.532344 L 85.985997 62.535445 L 85.984447 62.532344 L 74.117471 41.990962 L 75.728225 41.980627 L 77.943077 43.893689 A 3.306402 3.191038 0 0 1 77.519847 42.425044 A 3.306402 3.191038 0 0 1 80.826105 39.234025 z M 91.141755 40.322847 A 2.2857153 2.1164587 0 0 0 88.855589 42.439514 A 2.2857153 2.1164587 0 0 0 91.141755 44.555664 A 2.2857153 2.1164587 0 0 0 93.427403 42.439514 A 2.2857153 2.1164587 0 0 0 91.141755 40.322847 z M 80.830756 40.323364 A 2.2857153 2.1164587 0 0 0 78.545107 42.439514 A 2.2857153 2.1164587 0 0 0 80.830756 44.55618 A 2.2857153 2.1164587 0 0 0 83.116405 42.439514 A 2.2857153 2.1164587 0 0 0 80.830756 40.323364 z M 85.29715 43.997558 L 80.856077 47.776139 L 77.69658 45.076562 L 85.335391 56.818481 L 85.29715 43.997558 z M 86.674844 43.997558 L 86.63712 56.818481 L 94.275413 45.076045 L 91.115916 47.776139 L 86.674844 43.997558 z M 81.986241 45.393339 A 3.306402 3.191038 0 0 1 80.826105 45.616064 A 3.306402 3.191038 0 0 1 79.683022 45.396439 L 80.819387 46.378291 L 81.986241 45.393339 z M 89.986786 45.393339 L 91.152607 46.377775 L 92.288455 45.396956 A 3.306402 3.191038 0 0 1 91.146405 45.616064 A 3.306402 3.191038 0 0 1 89.986786 45.393339 z M 114.25301 49.52642 L 125.94893 49.531071 A 1.680753 1.680753 0 0 1 127.54625 50.69379 L 131.15533 61.817659 A 1.680753 1.680753 0 0 1 130.544 63.695064 L 121.07946 70.564412 A 1.680753 1.680753 0 0 1 119.43667 70.751481 A 1.680753 1.680753 0 0 1 119.10387 70.563895 L 109.64553 63.686279 A 1.680753 1.680753 0 0 1 109.03679 61.807841 L 112.65465 50.687589 A 1.680753 1.680753 0 0 1 114.25301 49.52642 z M 320.75306 63.930192 C 314.35745 63.930192 309.40725 65.700936 305.90229 69.242012 C 302.41541 72.765025 300.67212 77.814671 300.67212 84.390958 C 300.67212 89.323174 301.6655 93.370141 303.65281 96.531819 C 305.64016 99.693498 307.99823 101.90654 310.72628 103.17121 C 313.47243 104.41781 317.00406 105.04138 321.32202 105.04138 C 324.88117 105.04138 327.80839 104.52657 330.10288 103.49677 C 332.41542 102.46696 334.34826 100.94016 335.90201 98.916687 C 337.45575 96.893213 338.59411 94.373051 339.31679 91.355908 L 328.55775 88.10391 C 328.01575 90.615183 327.13996 92.529907 325.92949 93.848779 C 324.73709 95.167651 322.96635 95.827469 320.61767 95.827469 C 318.19672 95.827469 316.31774 95.014346 314.9808 93.388342 C 313.6439 91.744271 312.97524 88.718108 312.97524 84.309826 C 312.97524 80.750683 313.53562 78.139884 314.65576 76.477746 C 316.13723 74.237471 318.26895 73.117228 321.05124 73.117228 C 322.27975 73.117228 323.39069 73.370484 324.38437 73.876355 C 325.37801 74.382221 326.21812 75.104711 326.90462 76.044181 C 327.32016 76.604248 327.71792 77.489361 328.09732 78.699833 L 338.93748 76.288094 C 337.54634 72.096613 335.41411 68.989139 332.54149 66.965665 C 329.68694 64.942192 325.75756 63.930192 320.75306 63.930192 z M 157.33875 64.60767 L 157.33875 104.33703 L 175.57743 104.33703 C 177.76351 104.33703 180.20237 103.97553 182.89429 103.25286 C 184.86357 102.72892 186.70629 101.68119 188.42264 100.10938 C 190.13898 98.519501 191.47622 96.559206 192.43376 94.228601 C 193.40937 91.879925 193.89724 88.582379 193.89724 84.336698 C 193.89724 81.62669 193.57199 79.061466 192.92159 76.640527 C 192.27118 74.219584 191.22345 72.096665 189.77811 70.271923 C 188.33277 68.447185 186.49885 67.04675 184.27664 66.071146 C 182.07249 65.095544 179.17268 64.60767 175.57743 64.60767 L 157.33875 64.60767 z M 200.29271 64.60767 L 200.29271 104.33703 L 233.78834 104.33703 L 233.78834 95.339644 L 212.59636 95.339644 L 212.59636 87.507564 L 231.70165 87.507564 L 231.70165 79.404699 L 212.59636 79.404699 L 212.59636 73.090356 L 233.19252 73.090356 L 233.19252 64.60767 L 200.29271 64.60767 z M 240.37399 64.60767 L 240.37399 104.33703 L 252.7045 104.33703 L 252.7045 89.594258 L 259.42554 89.594258 C 264.3758 89.594258 268.05247 88.465209 270.45536 86.206868 C 272.87628 83.948526 274.08666 80.813604 274.08666 76.802791 C 274.08666 72.900378 272.97523 69.892339 270.75301 67.778536 C 268.5489 65.664728 265.22489 64.60767 260.7805 64.60767 L 240.37399 64.60767 z M 281.02422 64.60767 L 281.02422 104.33703 L 293.32786 104.33703 L 293.32786 64.60767 L 281.02422 64.60767 z M 342.46026 64.60767 L 342.46026 74.417924 L 354.98043 74.417924 L 354.98043 104.33703 L 367.2572 104.33703 L 367.2572 74.417924 L 379.77737 74.417924 L 379.77737 64.60767 L 342.46026 64.60767 z M 252.7045 72.683662 L 256.20041 72.683662 C 258.49489 72.683662 260.05794 73.117156 260.88902 73.984358 C 261.72009 74.851561 262.13545 75.90862 262.13545 77.155224 C 262.13545 78.437963 261.65639 79.495021 260.69885 80.32609 C 259.74131 81.139092 258.07934 81.545654 255.71259 81.545654 L 252.7045 81.545654 L 252.7045 72.683662 z M 169.61552 73.605053 L 172.67786 73.605053 C 175.85762 73.605053 178.13383 74.381923 179.5069 75.93566 C 180.87998 77.4894 181.56673 80.371063 181.56673 84.580611 C 181.56673 87.760355 181.25958 90.064028 180.64534 91.4913 C 180.03107 92.900506 179.1817 93.894379 178.09769 94.472513 C 177.01368 95.032584 175.18909 95.312255 172.6236 95.312255 L 169.61552 95.312255 L 169.61552 73.605053 z " /><g
       inkscape:label="Image"
       id="g993"
       transform="matrix(0.03181036,0,0,0.03098857,70.660925,36.745537)"><ellipse
         style="fill:#555555;fill-opacity:1;stroke:none;stroke-width:2.88378;stroke-opacity:1"
         id="path2080"
         cx="271.69977"
         cy="129.86084"
         rx="0.29731357"
         ry="4.6917014" /><ellipse
         style="fill:#555555;fill-opacity:1;stroke:none;stroke-width:2.88378;stroke-opacity:1"
         id="path2080-7"
         cx="-518.32355"
         cy="129.85104"
         rx="0.29731357"
         ry="4.6917014"
         transform="scale(-1,1)" /><g
         id="g2604"
         style="fill:#000000;fill-opacity:1"><g
           id="g2596"
           style="fill:#000000;fill-opacity:1"
           transform="matrix(1.0346703,0,0,1.0346703,73.116066,26.862757)" /></g></g></g></svg>
